<svg width="109" height="48" viewBox="0 0 109 48" fill="none" xmlns="http://www.w3.org/2000/svg">
<path fill-rule="evenodd" clip-rule="evenodd" d="M14.3943 17.2308C11.0683 17.7091 7.82263 18.6483 4.7482 20.0219C3.2225 20.6506 1.7451 21.3937 0.328267 22.2452C0.206538 22.3651 0.114308 22.5123 0.0590299 22.6751C0.00375165 22.8378 -0.0130239 23.0114 0.010059 23.1819C0.0331419 23.3525 0.0954357 23.5151 0.191906 23.6567C0.288376 23.7982 0.416317 23.9148 0.565387 23.9969C1.51446 24.1182 2.47702 24.0726 3.41084 23.8622C3.61002 23.8622 4.07478 23.5831 4.02735 23.8622C3.44878 29.4156 2.63308 34.9209 2.09245 40.4647C2.01657 40.9267 1.39057 41.0807 1.40005 41.5619C1.40954 42.0432 1.60872 42.8613 2.21575 43.0249C3.16423 43.2174 4.17911 42.8131 5.16553 42.8228C6.85684 42.6599 8.5069 42.1973 10.0407 41.4561C11.6844 40.4912 13.0442 39.0983 13.9797 37.4214C14.9152 35.7446 15.3923 33.8447 15.3617 31.918C15.3617 30.6861 15.6463 29.329 14.9823 28.2125C14.4796 27.3752 13.4458 27.2501 12.7439 26.6533C12.7439 26.1432 13.2276 25.8834 13.3889 25.4599C14.565 23.7274 16.0257 22.0239 16.3671 19.8872C16.4269 19.5792 16.422 19.2619 16.3528 18.956C16.2836 18.6501 16.1516 18.3625 15.9654 18.1118C15.7793 17.8611 15.5431 17.6531 15.2724 17.5013C15.0017 17.3495 14.7025 17.2573 14.3943 17.2308ZM12.8293 20.4839C13.2182 20.4839 13.3604 20.994 13.1423 21.2731C12.8293 21.8121 12.4214 22.2933 12.0989 22.8323C10.6026 25.0817 8.81982 27.1206 6.79693 28.8959C6.92023 26.6726 6.51238 24.353 7.31859 22.226C7.72644 21.4753 8.67492 21.4368 9.41474 21.2635C10.5218 20.877 11.6665 20.6124 12.8293 20.4743V20.4839ZM11.5773 30.1086C12.4025 30.1856 12.8862 31.0037 13.1138 31.7352C13.1912 32.465 13.1002 33.203 12.8483 33.8911C12.1564 35.9977 10.8701 37.8517 9.14917 39.2231C8.12348 39.7704 6.93584 39.9176 5.8105 39.637C5.6362 39.5567 5.49671 39.4146 5.41815 39.2375C5.33959 39.0603 5.32734 38.8602 5.38369 38.6745C5.55441 37.8949 5.60184 37.1057 5.76308 36.3261C6.0002 34.9979 6.28474 33.6793 6.57877 32.3608C8.18171 31.5138 9.6898 30.2337 11.5773 30.1471V30.1086Z" fill="white"/>
<path fill-rule="evenodd" clip-rule="evenodd" d="M22.7259 22.1568C21.4312 22.3989 20.1899 22.8823 19.0629 23.5832C18.9795 23.6306 18.9083 23.6977 18.8551 23.7791C18.8019 23.8605 18.7683 23.9538 18.757 24.0513C18.7456 24.1488 18.7569 24.2476 18.79 24.3397C18.823 24.4318 18.8768 24.5144 18.9469 24.5807C19.4933 24.8972 20.1351 24.9898 20.7446 24.8401C20.7211 25.2188 20.6726 25.5954 20.5996 25.9673C20.0584 30.0572 19.1788 34.1072 18.8599 38.237C18.7334 38.9968 18.863 39.7783 19.2272 40.4515C19.4011 40.5429 19.5911 40.5973 19.7858 40.6116C19.9806 40.6259 20.1761 40.5997 20.3608 40.5346C20.5456 40.4695 20.7158 40.3668 20.8614 40.2326C21.007 40.0983 21.125 39.9353 21.2085 39.7532C22.001 38.4265 22.0784 36.7606 22.7839 35.4239C24.2095 31.4189 26.6533 27.8837 29.8588 25.1892C30.4387 24.7005 31.2119 24.4012 31.6178 23.7229C31.7821 23.0944 31.1732 22.5358 30.6513 22.466C30.1279 22.4086 29.6028 22.5583 29.1822 22.8849C26.8529 24.1319 25.2485 26.3364 23.4701 28.2616C23.2092 28.4412 22.9096 28.0921 22.9869 27.8128C22.8999 26.1469 23.7601 24.5309 23.3832 22.8251C23.2672 22.4959 23.1029 22.1168 22.7259 22.1568Z" fill="white"/>
<path fill-rule="evenodd" clip-rule="evenodd" d="M42.279 18.4616C40.3256 18.4579 38.4429 19.1866 37.0076 20.5018C35.1061 22.1235 33.5626 24.1176 32.4738 26.359C31.9558 27.4621 31.6744 28.6599 31.6473 29.8765C31.6202 31.0932 31.8481 32.3021 32.3164 33.4268C32.5983 34.0096 33.0185 34.5158 33.541 34.9018C34.0635 35.2878 34.6726 35.542 35.316 35.6428C37.0692 35.8459 38.8378 35.4201 40.3022 34.442C42.0537 33.3724 43.6127 32.0196 44.9148 30.4396C45.8536 29.6267 46.5365 28.5625 46.8817 27.3743C46.8129 27.1205 46.449 27.1303 46.3015 27.306C45.082 27.96 44.3345 29.2584 43.1937 29.9515C41.5808 31.2791 40.0367 32.8801 37.8927 33.3389C37.3818 33.4578 36.849 33.4468 36.3436 33.3068C35.8381 33.1669 35.3764 32.9026 35.0013 32.5384C34.4753 32.0354 34.1241 31.3793 33.9986 30.665C33.873 29.9508 33.9797 29.2154 34.303 28.5653C34.4955 28.3032 34.7447 28.0873 35.0323 27.9336C35.32 27.7798 35.6388 27.6921 35.9651 27.6769C38.8512 27.0949 41.6393 26.1088 44.246 24.7483C45.1115 24.2114 46.1343 23.5378 46.213 22.4347C46.2571 21.9268 46.1933 21.4153 46.0257 20.9335C45.8581 20.4516 45.5904 20.01 45.2399 19.6373C44.8895 19.2646 44.4641 18.9691 43.9913 18.7699C43.5186 18.5708 43.0089 18.4724 42.4954 18.4811L42.279 18.4616ZM41.7086 20.2382C42.3044 20.2205 42.8864 20.4173 43.3474 20.7923C43.8083 21.1673 44.117 21.6952 44.2165 22.2785C44.2165 23.0107 43.4002 23.3816 42.7905 23.5866C40.5088 24.2993 38.3156 25.4707 35.9061 25.5878C35.493 25.2462 35.6996 24.6116 36.0438 24.309C37.025 22.8864 38.2945 21.6828 39.7712 20.7752C40.3721 20.4637 41.0321 20.2808 41.7086 20.2382Z" fill="white"/>
<path fill-rule="evenodd" clip-rule="evenodd" d="M59.5005 16.0028C58.4106 15.9725 57.3274 16.1912 56.3239 16.6442C55.3204 17.0971 54.42 17.7738 53.6837 18.6285C51.8407 20.4028 50.444 22.6386 49.6205 25.1326C49.2852 26.1835 49.1614 27.2975 49.2573 28.4024C49.3531 29.5074 49.6663 30.5786 50.1767 31.5466C50.6698 32.2339 51.3471 32.7463 52.1196 33.0165C52.892 33.2866 53.7232 33.3017 54.5039 33.0598C56.756 32.3747 58.7836 31.035 60.3584 29.1914C61.1974 28.2795 62.0082 27.3174 62.7624 26.3252C63.0412 25.9773 63.2239 25.5541 63.2903 25.1025C63.0546 24.9923 62.8567 25.333 62.6681 25.4333C61.8479 26.1649 61.1786 27.0969 60.283 27.7483C58.7651 29.1012 57.2944 30.7548 55.3241 31.2659C54.7557 31.4514 54.151 31.4721 53.5725 31.3259C52.9941 31.1796 52.4629 30.8718 52.0339 30.4341C51.4485 29.8569 51.0707 29.0806 50.9658 28.2392C50.8608 27.3977 51.0351 26.5436 51.4588 25.8241C51.8919 25.2931 52.4983 24.9564 53.1558 24.8821C56.116 24.0503 59.1988 23.3287 61.6971 21.3444C62.0181 21.1371 62.2805 20.8414 62.4564 20.4885C62.6324 20.1357 62.7153 19.7389 62.6964 19.34C62.6626 18.4571 62.3112 17.6217 61.7147 17.0063C61.1182 16.3908 60.3222 16.0424 59.491 16.0328L59.5005 16.0028ZM58.6803 17.2856C59.3034 17.2644 59.9125 17.4844 60.3945 17.9046C60.8765 18.3249 61.1987 18.9168 61.3011 19.5705C61.3011 20.3121 60.6506 20.7631 60.1133 21.0638C58.8301 21.6789 57.5106 22.2045 56.1631 22.6372C55.0904 22.993 53.9936 23.261 52.8824 23.4389C52.7587 23.3567 52.6547 23.2451 52.5785 23.113C52.5022 22.9808 52.4559 22.8316 52.4431 22.6771C52.4303 22.5227 52.4514 22.3672 52.5047 22.2229C52.5581 22.0786 52.6421 21.9494 52.7504 21.8455C53.576 20.6819 54.5041 19.6047 55.5221 18.6285C56.4099 17.8285 57.5184 17.3571 58.6803 17.2856Z" fill="white"/>
<path fill-rule="evenodd" clip-rule="evenodd" d="M74.7576 13.5392C72.8452 13.5125 70.9949 14.1987 69.5871 15.4568C67.8483 16.9571 66.4069 18.7541 65.3344 20.759C64.3288 22.7981 64.1871 25.1392 64.9397 27.2788C65.2964 28.0872 65.9357 28.747 66.7446 29.1417C67.5535 29.5365 68.4799 29.6407 69.3602 29.4361C71.9059 28.9663 74.0077 27.298 75.8035 25.6009C76.8299 24.6412 77.7433 23.5736 78.5269 22.4177C77.3329 23.2615 76.4745 24.4695 75.2608 25.2941C73.7018 26.5981 72.0539 28.0171 69.9424 28.3047C69.3061 28.4072 68.6532 28.3381 68.0546 28.1048C67.4561 27.8714 66.935 27.4829 66.548 26.9816C66.0633 26.4024 65.7632 25.6983 65.6843 24.9558C65.6054 24.2132 65.7513 23.4644 66.104 22.8012C66.4503 22.3921 66.8815 22.0585 67.3695 21.8223C67.8575 21.586 68.3912 21.4524 68.9359 21.4301C71.8961 20.6535 74.9747 19.9152 77.4217 18.0264C77.78 17.6503 77.9989 17.1688 78.0435 16.6582C78.0882 16.1475 77.9562 15.637 77.6684 15.2075C77.398 14.6798 76.9721 14.2421 76.445 13.9502C75.9179 13.6582 75.3134 13.5252 74.7082 13.568L74.7576 13.5392ZM74.0175 14.2967C74.7911 14.2809 75.5402 14.5601 76.1046 15.0744C76.6689 15.5887 77.0036 16.2973 77.0369 17.0484C76.6817 18.0552 75.5371 18.4195 74.6096 18.8126C72.6076 19.6425 70.5157 20.2504 68.3735 20.6248C68.236 20.676 68.0858 20.685 67.9429 20.6508C67.8 20.6165 67.6713 20.5405 67.5742 20.433C67.4494 20.2944 67.357 20.1313 67.3033 19.9547C67.2496 19.7782 67.2358 19.5924 67.263 19.4102C67.2902 19.228 67.3577 19.0536 67.4608 18.8992C67.5639 18.7447 67.7002 18.6138 67.8604 18.5154C69.1135 16.9046 70.5147 15.2171 72.5375 14.5268C73.0167 14.3806 73.5153 14.3031 74.0175 14.2967Z" fill="white"/>
<path fill-rule="evenodd" clip-rule="evenodd" d="M87.1328 0.0496549C86.4872 0.370511 85.8763 0.7531 85.3092 1.19172C85.6472 1.07255 85.9853 0.943444 86.3337 0.844134C86.1698 2.25433 85.7599 3.62481 85.555 5.02508C85.3372 6.37019 84.8084 7.65013 84.008 8.76906C82.9835 9.76216 81.5185 9.76216 80.289 10.2488C79.6538 10.5566 78.824 10.795 78.5269 11.4703C78.7933 11.6193 79.1416 11.4703 79.4182 11.4107C80.5657 11.0731 81.6619 10.2388 82.922 10.4176C83.2326 10.4879 83.5067 10.6639 83.6947 10.9136C83.8827 11.1633 83.9721 11.47 83.9465 11.7782C83.9465 12.5329 83.6904 13.2579 83.6494 14.0126C83.0757 18.3127 82.3893 22.593 81.9283 26.9229C82.0512 27.1613 82.5839 27.1215 82.5225 26.8137C83.547 21.3119 83.8339 15.7108 85.1657 10.2686C85.474 9.69625 85.9035 9.19339 86.4261 8.79294C86.9487 8.39249 87.5526 8.10348 88.1983 7.94479C88.9154 7.64686 89.8477 7.55748 90.2473 6.85238C89.0486 6.74314 87.9831 7.7561 86.764 7.41845C86.4594 7.23713 86.2306 6.95733 86.1182 6.62844C86.0057 6.29956 86.0167 5.94272 86.1493 5.62094C86.4669 4.19088 86.7742 2.76081 87.0611 1.33075C87.1478 0.891702 87.1992 0.446776 87.2148 0H87.1635L87.1328 0.0496549Z" fill="white"/>
<path fill-rule="evenodd" clip-rule="evenodd" d="M93.1424 1.24019C92.5305 1.60134 91.9754 2.04536 91.4941 2.55869C91.933 2.44568 92.3036 2.17256 92.7425 2.04071C92.2061 4.38576 91.6794 6.74965 91.3575 9.14179C90.5773 14.2934 89.758 19.5015 89.0753 24.6154C89.3874 24.6154 89.4557 24.2481 89.5239 24.0126C90.1774 22.1291 90.8211 20.2455 91.5429 18.3619C92.3682 16.3215 93.6313 14.4728 95.2491 12.9372C96.062 11.9507 97.0533 11.1146 98.1751 10.4697C98.3626 10.4033 98.563 10.378 98.7619 10.3956C98.9607 10.4132 99.153 10.4734 99.3248 10.5716C99.4966 10.6699 99.6436 10.8039 99.7552 10.9638C99.8667 11.1237 99.94 11.3056 99.9697 11.4963C100.007 13.0399 99.8559 14.5824 99.5211 16.0922C99.0362 18.0296 98.7101 20.0009 98.5458 21.9878C98.7116 21.1967 98.8481 20.3962 99.0627 19.6145C99.8286 16.83 100.396 13.9979 100.76 11.1384C100.832 10.5936 100.795 10.0406 100.652 9.50909C100.542 9.34901 100.396 9.21473 100.226 9.11605C100.055 9.01737 99.8633 8.95679 99.6652 8.93874C99.467 8.92069 99.2671 8.94562 99.0802 9.01171C98.8933 9.0778 98.724 9.18338 98.5848 9.32073C96.6341 10.6675 95.2296 12.5982 93.2302 13.8602C93.002 13.8901 92.7697 13.8669 92.5526 13.7925C92.3356 13.7181 92.1402 13.5946 91.9826 13.4323C91.8251 13.2701 91.7101 13.0738 91.6471 12.8599C91.5842 12.6459 91.5752 12.4206 91.6209 12.2026C91.8355 11.0065 91.9525 9.80105 92.2158 8.61439C92.8222 6.19549 93.1493 3.71919 93.1912 1.23077L93.1424 1.24019Z" fill="white"/>
<path fill-rule="evenodd" clip-rule="evenodd" d="M108.613 0.0199859C107.629 0.374617 106.795 1.02757 106.237 1.87867C105.714 2.87797 105.965 3.9672 105.798 5.00647C105.578 7.24489 104.94 9.46332 105.076 11.7317C105.242 11.4106 105.379 11.0762 105.484 10.7324C105.986 9.27345 106.834 7.96438 107.315 6.49542C107.922 4.80661 108.362 3.06783 109 1.36903C108.791 0.929344 109 0.369739 108.655 0L108.613 0.0199859ZM104.846 17.7575C104.063 17.7961 103.326 18.1225 102.79 18.6683C102.253 19.2141 101.959 19.9369 101.968 20.6854C102.206 20.8214 102.475 20.9015 102.752 20.9193C103.029 20.9371 103.306 20.892 103.561 20.7877C103.817 20.6834 104.042 20.5228 104.22 20.3192C104.398 20.1156 104.523 19.8747 104.584 19.6162C104.925 19.0582 105.106 18.4237 105.107 17.7775C105.021 17.7603 104.933 17.7536 104.846 17.7575Z" fill="white"/>
<path fill-rule="evenodd" clip-rule="evenodd" d="M103.951 25.8756C95.4039 26.4795 86.9375 27.935 78.6761 30.2208C73.625 31.6038 68.7007 33.3987 63.8251 35.2329C62.4015 35.7135 61.0168 36.302 59.5541 36.6453C59.1631 36.7267 58.7623 36.7499 58.3645 36.714C58.0817 36.0666 58.2572 35.2329 57.6722 34.7523C57.2243 34.3781 56.6958 34.1141 56.1288 33.9813C55.5617 33.8485 54.9717 33.8505 54.4056 33.9872C51.1682 34.3109 48.0966 35.4291 45.0055 36.3315C35.9954 39.1465 27.0536 42.2754 17.7023 44.0508C12.5238 45.0479 7.28602 45.7032 2.02248 46.0125C1.38866 46.1106 0.579316 46.091 0.150266 46.6304C-0.278784 47.1699 0.296533 47.7682 0.803592 47.9154C1.83417 48.0282 2.87388 48.0282 3.90445 47.9154C10.8819 47.4933 17.8021 46.3896 24.5671 44.6197C31.978 42.7855 39.1938 40.3235 46.3901 37.8518C48.7499 37.0671 51.1097 36.253 53.5182 35.6056C54.2853 35.389 55.0883 35.3323 55.878 35.4389C56.2264 35.8073 56.4248 36.2938 56.4338 36.8023C56.4296 37.0156 56.469 37.2275 56.5495 37.4249C56.63 37.6223 56.7499 37.801 56.9018 37.9499C57.2734 38.2786 57.731 38.493 58.2201 38.5678C58.7093 38.6426 59.2096 38.5745 59.6614 38.3717C61.8554 37.7047 63.9226 36.7042 66.0484 35.841C71.6336 33.3228 77.4121 31.2628 83.3274 29.6813C90.2099 27.8447 97.2269 26.5623 104.312 25.8462L103.951 25.8756Z" fill="white"/>
</svg>
